<svg width="332" height="328" fill="none" xmlns="http://www.w3.org/2000/svg"><g filter="url(#a)"><path d="M0 38C0 17.013 17.013 0 38 0h252c20.987 0 38 17.013 38 38v252c0 20.987-17.013 38-38 38H38c-20.987 0-38-17.013-38-38V38z" fill="#FCB2D8"/></g><path fill="#F5F5F5" d="M0 92H328V142H0zM0 212H328V262H0z"/><g filter="url(#b)"><circle cx="298" cy="118" r="20" fill="#7096D1" fill-opacity=".439"/></g><path d="M294.111 116.889a1.667 1.667 0 100-3.333 1.667 1.667 0 000 3.333zM303.556 115.222a1.667 1.667 0 11-3.334 0 1.667 1.667 0 013.334 0zM301.455 122.954a1.11 1.11 0 001.981-1.006 3.491 3.491 0 00-.331-.517 5.373 5.373 0 00-.941-.965c-.878-.702-2.23-1.355-4.167-1.355-1.936 0-3.289.653-4.166 1.355a5.339 5.339 0 00-.941.965 3.763 3.763 0 00-.33.516 1.12 1.12 0 00.496 1.491 1.11 1.11 0 001.484-.484c.016-.027.225-.389.679-.753.512-.409 1.382-.867 2.778-.867 1.397 0 2.267.458 2.779.867.454.364.663.726.679.753z" fill="#0F0F0F"/><path fill-rule="evenodd" clip-rule="evenodd" d="M298 130.223c6.75 0 12.222-5.472 12.222-12.222 0-6.751-5.472-12.223-12.222-12.223-6.75 0-12.222 5.472-12.222 12.223 0 6.75 5.472 12.222 12.222 12.222zm0-2.23c-5.519 0-9.992-4.474-9.992-9.992 0-5.519 4.473-9.993 9.992-9.993 5.519 0 9.992 4.474 9.992 9.993 0 5.518-4.473 9.992-9.992 9.992z" fill="#0F0F0F"/><g filter="url(#c)"><circle cx="231" cy="238" r="20" fill="#7096D1" fill-opacity=".439"/></g><path d="M227.111 236.889a1.667 1.667 0 100-3.333 1.667 1.667 0 000 3.333zM236.556 235.222a1.667 1.667 0 11-3.334 0 1.667 1.667 0 013.334 0zM234.455 242.954a1.11 1.11 0 001.981-1.006 3.491 3.491 0 00-.331-.517 5.373 5.373 0 00-.941-.965c-.878-.702-2.23-1.355-4.167-1.355-1.936 0-3.289.653-4.166 1.355a5.339 5.339 0 00-.941.965 3.763 3.763 0 00-.33.516 1.12 1.12 0 00.496 1.491 1.11 1.11 0 001.484-.484c.016-.027.225-.389.679-.753.512-.409 1.382-.867 2.778-.867 1.397 0 2.267.458 2.779.867.454.364.663.726.679.753z" fill="#0F0F0F"/><path fill-rule="evenodd" clip-rule="evenodd" d="M231 250.223c6.75 0 12.222-5.472 12.222-12.222 0-6.751-5.472-12.223-12.222-12.223-6.75 0-12.222 5.472-12.222 12.223 0 6.75 5.472 12.222 12.222 12.222zm0-2.23c-5.519 0-9.992-4.474-9.992-9.992 0-5.519 4.473-9.993 9.992-9.993 5.519 0 9.992 4.474 9.992 9.993 0 5.518-4.473 9.992-9.992 9.992z" fill="#0F0F0F"/><g filter="url(#d)"><circle cx="30" cy="118" r="20" fill="#FFE169"/></g><path d="M26.111 116.889a1.667 1.667 0 100-3.333 1.667 1.667 0 000 3.333zM35.556 115.222a1.667 1.667 0 11-3.334 0 1.667 1.667 0 013.334 0z" fill="#0F0F0F"/><path fill-rule="evenodd" clip-rule="evenodd" d="M25.778 119.111c-.71 0-1.396.596-1.315 1.438.049.506.24 1.661 1.042 2.711.848 1.108 2.272 1.962 4.495 1.962 2.223 0 3.647-.854 4.495-1.962.802-1.05.993-2.205 1.042-2.711.081-.842-.605-1.438-1.315-1.438h-8.444zm1.493 2.799a2.782 2.782 0 01-.336-.576h6.13a2.782 2.782 0 01-.336.576c-.398.521-1.15 1.09-2.729 1.09-1.58 0-2.331-.569-2.729-1.09z" fill="#0F0F0F"/><path fill-rule="evenodd" clip-rule="evenodd" d="M30 130.223c6.75 0 12.222-5.472 12.222-12.222 0-6.751-5.472-12.223-12.222-12.223-6.75 0-12.222 5.472-12.222 12.223 0 6.75 5.472 12.222 12.222 12.222zm0-2.23c-5.519 0-9.992-4.474-9.992-9.992 0-5.519 4.473-9.993 9.992-9.993 5.519 0 9.992 4.474 9.992 9.993 0 5.518-4.473 9.992-9.992 9.992z" fill="#0F0F0F"/><g filter="url(#e)"><circle cx="164" cy="238" r="20" fill="#FFE169"/></g><path d="M160.111 236.889a1.667 1.667 0 100-3.333 1.667 1.667 0 000 3.333zM169.556 235.222a1.667 1.667 0 11-3.334 0 1.667 1.667 0 013.334 0z" fill="#0F0F0F"/><path fill-rule="evenodd" clip-rule="evenodd" d="M159.778 239.111c-.71 0-1.396.596-1.315 1.438.049.506.24 1.661 1.042 2.711.848 1.108 2.272 1.962 4.495 1.962 2.223 0 3.647-.854 4.495-1.962.802-1.05.993-2.205 1.042-2.711.081-.842-.605-1.438-1.315-1.438h-8.444zm1.493 2.799a2.735 2.735 0 01-.336-.576h6.13a2.735 2.735 0 01-.336.576c-.398.521-1.149 1.09-2.729 1.09s-2.331-.569-2.729-1.09z" fill="#0F0F0F"/><path fill-rule="evenodd" clip-rule="evenodd" d="M164 250.223c6.75 0 12.222-5.472 12.222-12.222 0-6.751-5.472-12.223-12.222-12.223-6.75 0-12.222 5.472-12.222 12.223 0 6.75 5.472 12.222 12.222 12.222zm0-2.23c-5.519 0-9.992-4.474-9.992-9.992 0-5.519 4.473-9.993 9.992-9.993 5.519 0 9.992 4.474 9.992 9.993 0 5.518-4.473 9.992-9.992 9.992z" fill="#0F0F0F"/><g filter="url(#f)"><ellipse cx="298" cy="238.398" rx="20" ry="21.398" fill="#FFE169"/></g><path d="M294.111 237.21c.921 0 1.667-.798 1.667-1.783 0-.985-.746-1.783-1.667-1.783-.92 0-1.667.798-1.667 1.783 0 .985.747 1.783 1.667 1.783zM303.556 235.427c0 .985-.747 1.783-1.667 1.783-.921 0-1.667-.798-1.667-1.783 0-.985.746-1.783 1.667-1.783.92 0 1.667.798 1.667 1.783z" fill="#0F0F0F"/><path fill-rule="evenodd" clip-rule="evenodd" d="M293.778 239.587c-.71 0-1.396.637-1.315 1.538.049.541.24 1.777 1.042 2.9.848 1.187 2.272 2.1 4.495 2.1 2.223 0 3.647-.913 4.495-2.1.802-1.123.993-2.359 1.042-2.9.081-.901-.605-1.538-1.315-1.538h-8.444zm1.493 2.995a2.995 2.995 0 01-.336-.617h6.13a2.995 2.995 0 01-.336.617c-.398.557-1.149 1.166-2.729 1.166s-2.331-.609-2.729-1.166z" fill="#0F0F0F"/><path fill-rule="evenodd" clip-rule="evenodd" d="M298 251.475c6.75 0 12.222-5.855 12.222-13.077 0-7.222-5.472-13.077-12.222-13.077-6.75 0-12.222 5.855-12.222 13.077 0 7.222 5.472 13.077 12.222 13.077zm0-2.386c-5.519 0-9.992-4.786-9.992-10.691 0-5.904 4.473-10.691 9.992-10.691 5.519 0 9.992 4.787 9.992 10.691 0 5.905-4.473 10.691-9.992 10.691z" fill="#0F0F0F"/><g filter="url(#g)"><circle cx="97" cy="118" r="20" fill="#AA9F94"/></g><path d="M93.111 116.889a1.667 1.667 0 100-3.333 1.667 1.667 0 000 3.333zM102.556 115.222a1.667 1.667 0 11-3.334 0 1.667 1.667 0 013.334 0zM101.714 121.301a1.111 1.111 0 00-.539-2.156l-8.889 2.222a1.11 1.11 0 10.539 2.156l8.889-2.222z" fill="#0F0F0F"/><path fill-rule="evenodd" clip-rule="evenodd" d="M97 130.223c6.75 0 12.222-5.472 12.222-12.222 0-6.751-5.472-12.223-12.222-12.223-6.75 0-12.222 5.472-12.222 12.223 0 6.75 5.472 12.222 12.222 12.222zm0-2.23c-5.519 0-9.992-4.474-9.992-9.992 0-5.519 4.473-9.993 9.992-9.993 5.519 0 9.992 4.474 9.992 9.993 0 5.518-4.473 9.992-9.992 9.992z" fill="#0F0F0F"/><g filter="url(#h)"><circle cx="30" cy="238" r="20" fill="#AA9F94"/></g><path d="M26.111 236.889a1.667 1.667 0 100-3.333 1.667 1.667 0 000 3.333zM35.556 235.222a1.667 1.667 0 11-3.334 0 1.667 1.667 0 013.334 0zM34.714 241.301a1.111 1.111 0 00-.539-2.156l-8.889 2.222a1.11 1.11 0 10.54 2.156l8.888-2.222z" fill="#0F0F0F"/><path fill-rule="evenodd" clip-rule="evenodd" d="M30 250.223c6.75 0 12.222-5.472 12.222-12.222 0-6.751-5.472-12.223-12.222-12.223-6.75 0-12.222 5.472-12.222 12.223 0 6.75 5.472 12.222 12.222 12.222zm0-2.23c-5.519 0-9.992-4.474-9.992-9.992 0-5.519 4.473-9.993 9.992-9.993 5.519 0 9.992 4.474 9.992 9.993 0 5.518-4.473 9.992-9.992 9.992z" fill="#0F0F0F"/><g filter="url(#i)"><circle cx="231" cy="118" r="20" fill="#DBB6EE"/></g><path d="M227.111 116.889a1.667 1.667 0 100-3.333 1.667 1.667 0 000 3.333zM236.556 115.222a1.667 1.667 0 11-3.334 0 1.667 1.667 0 013.334 0z" fill="#0F0F0F"/><path fill-rule="evenodd" clip-rule="evenodd" d="M231 130.223c6.75 0 12.222-5.472 12.222-12.222 0-6.751-5.472-12.223-12.222-12.223-6.75 0-12.222 5.472-12.222 12.223 0 6.75 5.472 12.222 12.222 12.222zm0-2.23c-5.519 0-9.992-4.474-9.992-9.992 0-5.519 4.473-9.993 9.992-9.993 5.519 0 9.992 4.474 9.992 9.993 0 5.518-4.473 9.992-9.992 9.992z" fill="#0F0F0F"/><path d="M225.667 124.223A5.332 5.332 0 01231 118.89h.444a5.333 5.333 0 015.334 5.333.889.889 0 01-.889.889h-9.333a.889.889 0 01-.889-.889z" fill="#0B0A0A"/><g filter="url(#j)"><circle cx="164" cy="118" r="20" fill="#FF8C69"/></g><path d="M160.111 116.889a1.667 1.667 0 100-3.333 1.667 1.667 0 000 3.333zM169.556 115.222a1.667 1.667 0 11-3.334 0 1.667 1.667 0 013.334 0zM157.948 122.327a1.11 1.11 0 001.475-.468c.255-.4.805-.525 1.244-.525.497 0 .687.126 1.045.365l.005.004c.472.314 1.116.742 2.283.742 1.167 0 1.811-.428 2.283-.742l.005-.004c.358-.239.548-.365 1.045-.365.439 0 .989.125 1.244.525a1.11 1.11 0 001.475.468c.535-.267.764-.962.495-1.495a2.178 2.178 0 00-.215-.339 3.284 3.284 0 00-.568-.583c-.53-.424-1.327-.799-2.431-.799-1.167 0-1.811.428-2.283.742l-.005.004c-.358.239-.548.365-1.045.365-.497 0-.687-.126-1.045-.365l-.005-.004c-.472-.314-1.116-.742-2.283-.742-1.104 0-1.901.375-2.431.799a3.284 3.284 0 00-.568.583 2.125 2.125 0 00-.216.341 1.128 1.128 0 00.496 1.493z" fill="#0F0F0F"/><path fill-rule="evenodd" clip-rule="evenodd" d="M164 130.223c6.75 0 12.222-5.472 12.222-12.222 0-6.751-5.472-12.223-12.222-12.223-6.75 0-12.222 5.472-12.222 12.223 0 6.75 5.472 12.222 12.222 12.222zm0-2.23c-5.519 0-9.992-4.474-9.992-9.992 0-5.519 4.473-9.993 9.992-9.993 5.519 0 9.992 4.474 9.992 9.993 0 5.518-4.473 9.992-9.992 9.992z" fill="#0F0F0F"/><g filter="url(#k)"><circle cx="97" cy="238" r="20" fill="#FF8C69"/></g><path d="M93.111 236.889a1.667 1.667 0 100-3.333 1.667 1.667 0 000 3.333zM102.556 235.222a1.667 1.667 0 11-3.334 0 1.667 1.667 0 013.334 0zM90.948 242.327c.539.27 1.192.06 1.475-.468.255-.4.805-.525 1.244-.525.497 0 .687.126 1.045.365l.005.004c.472.314 1.116.742 2.283.742 1.167 0 1.811-.428 2.283-.742l.005-.004c.358-.239.548-.365 1.045-.365.439 0 .989.125 1.244.525a1.11 1.11 0 001.475.468c.535-.267.764-.962.495-1.495a2.178 2.178 0 00-.215-.339 3.284 3.284 0 00-.568-.583c-.53-.424-1.327-.799-2.431-.799-1.167 0-1.81.428-2.283.742l-.005.004c-.358.239-.548.365-1.045.365-.497 0-.687-.126-1.045-.365l-.005-.004c-.472-.314-1.116-.742-2.283-.742-1.104 0-1.9.375-2.43.799a3.288 3.288 0 00-.569.583 2.135 2.135 0 00-.216.341 1.13 1.13 0 00.496 1.493z" fill="#0F0F0F"/><path fill-rule="evenodd" clip-rule="evenodd" d="M97 250.223c6.75 0 12.222-5.472 12.222-12.222 0-6.751-5.472-12.223-12.222-12.223-6.75 0-12.222 5.472-12.222 12.223 0 6.75 5.472 12.222 12.222 12.222zm0-2.23c-5.519 0-9.992-4.474-9.992-9.992 0-5.519 4.473-9.993 9.992-9.993 5.519 0 9.992 4.474 9.992 9.993 0 5.518-4.473 9.992-9.992 9.992z" fill="#0F0F0F"/><g filter="url(#l)"><circle cx="164" cy="177" r="20" fill="#7096D1" fill-opacity=".439"/></g><path d="M160.111 175.889a1.667 1.667 0 100-3.333 1.667 1.667 0 000 3.333zM169.556 174.222a1.667 1.667 0 11-3.334 0 1.667 1.667 0 013.334 0zM167.455 181.954a1.11 1.11 0 001.981-1.006 3.491 3.491 0 00-.331-.517 5.373 5.373 0 00-.941-.965c-.878-.702-2.23-1.355-4.167-1.355-1.936 0-3.289.653-4.166 1.355a5.339 5.339 0 00-.941.965 3.763 3.763 0 00-.33.516 1.12 1.12 0 00.496 1.491 1.11 1.11 0 001.484-.484c.016-.027.225-.389.679-.753.512-.409 1.382-.867 2.778-.867 1.397 0 2.267.458 2.779.867.454.364.663.726.679.753z" fill="#0F0F0F"/><path fill-rule="evenodd" clip-rule="evenodd" d="M164 189.223c6.75 0 12.222-5.472 12.222-12.222 0-6.751-5.472-12.223-12.222-12.223-6.75 0-12.222 5.472-12.222 12.223 0 6.75 5.472 12.222 12.222 12.222zm0-2.23c-5.519 0-9.992-4.474-9.992-9.992 0-5.519 4.473-9.993 9.992-9.993 5.519 0 9.992 4.474 9.992 9.993 0 5.518-4.473 9.992-9.992 9.992z" fill="#0F0F0F"/><g filter="url(#m)"><circle cx="97" cy="177" r="20" fill="#FFE169"/></g><path d="M93.111 175.889a1.667 1.667 0 100-3.333 1.667 1.667 0 000 3.333zM102.556 174.222a1.667 1.667 0 11-3.334 0 1.667 1.667 0 013.334 0z" fill="#0F0F0F"/><path fill-rule="evenodd" clip-rule="evenodd" d="M92.778 178.111c-.71 0-1.396.596-1.315 1.438.049.506.24 1.661 1.042 2.711.848 1.108 2.272 1.962 4.495 1.962 2.223 0 3.647-.854 4.495-1.962.802-1.05.993-2.205 1.042-2.711.081-.842-.605-1.438-1.315-1.438h-8.444zm1.493 2.799a2.787 2.787 0 01-.337-.576h6.131a2.761 2.761 0 01-.336.576c-.398.521-1.15 1.09-2.729 1.09-1.58 0-2.331-.569-2.729-1.09z" fill="#0F0F0F"/><path fill-rule="evenodd" clip-rule="evenodd" d="M97 189.223c6.75 0 12.222-5.472 12.222-12.222 0-6.751-5.472-12.223-12.222-12.223-6.75 0-12.222 5.472-12.222 12.223 0 6.75 5.472 12.222 12.222 12.222zm0-2.23c-5.519 0-9.992-4.474-9.992-9.992 0-5.519 4.473-9.993 9.992-9.993 5.519 0 9.992 4.474 9.992 9.993 0 5.518-4.473 9.992-9.992 9.992z" fill="#0F0F0F"/><g filter="url(#n)"><circle cx="298" cy="177" r="20" fill="#AA9F94"/></g><path d="M294.111 175.889a1.667 1.667 0 100-3.333 1.667 1.667 0 000 3.333zM303.556 174.222a1.667 1.667 0 11-3.334 0 1.667 1.667 0 013.334 0zM302.714 180.301a1.111 1.111 0 00-.539-2.156l-8.889 2.222a1.11 1.11 0 00.539 2.156l8.889-2.222z" fill="#0F0F0F"/><path fill-rule="evenodd" clip-rule="evenodd" d="M298 189.223c6.75 0 12.222-5.472 12.222-12.222 0-6.751-5.472-12.223-12.222-12.223-6.75 0-12.222 5.472-12.222 12.223 0 6.75 5.472 12.222 12.222 12.222zm0-2.23c-5.519 0-9.992-4.474-9.992-9.992 0-5.519 4.473-9.993 9.992-9.993 5.519 0 9.992 4.474 9.992 9.993 0 5.518-4.473 9.992-9.992 9.992z" fill="#0F0F0F"/><g filter="url(#o)"><circle cx="30" cy="177" r="20" fill="#DBB6EE"/></g><path d="M26.111 175.889a1.667 1.667 0 100-3.333 1.667 1.667 0 000 3.333zM35.556 174.222a1.667 1.667 0 11-3.334 0 1.667 1.667 0 013.334 0z" fill="#0F0F0F"/><path fill-rule="evenodd" clip-rule="evenodd" d="M30 189.223c6.75 0 12.222-5.472 12.222-12.222 0-6.751-5.472-12.223-12.222-12.223-6.75 0-12.222 5.472-12.222 12.223 0 6.75 5.472 12.222 12.222 12.222zm0-2.23c-5.519 0-9.992-4.474-9.992-9.992 0-5.519 4.473-9.993 9.992-9.993 5.519 0 9.992 4.474 9.992 9.993 0 5.518-4.473 9.992-9.992 9.992z" fill="#0F0F0F"/><path d="M24.667 183.223A5.333 5.333 0 0130 177.89h.445a5.333 5.333 0 015.333 5.333.889.889 0 01-.89.889h-9.332a.889.889 0 01-.89-.889z" fill="#0B0A0A"/><g filter="url(#p)"><circle cx="231" cy="177" r="20" fill="#FF8C69"/></g><path d="M227.111 175.889a1.667 1.667 0 100-3.333 1.667 1.667 0 000 3.333zM236.556 174.222a1.667 1.667 0 11-3.334 0 1.667 1.667 0 013.334 0zM224.948 181.327a1.11 1.11 0 001.475-.468c.255-.4.805-.525 1.244-.525.497 0 .687.126 1.045.365l.005.004c.472.314 1.116.742 2.283.742 1.167 0 1.811-.428 2.283-.742l.005-.004c.358-.239.548-.365 1.045-.365.439 0 .989.125 1.244.525a1.11 1.11 0 001.475.468c.535-.267.764-.962.495-1.495a2.178 2.178 0 00-.215-.339 3.284 3.284 0 00-.568-.583c-.53-.424-1.327-.799-2.431-.799-1.167 0-1.811.428-2.283.742l-.005.004c-.358.239-.548.365-1.045.365-.497 0-.687-.126-1.045-.365l-.005-.004c-.472-.314-1.116-.742-2.283-.742-1.104 0-1.901.375-2.431.799a3.284 3.284 0 00-.568.583 2.125 2.125 0 00-.216.341 1.128 1.128 0 00.496 1.493z" fill="#0F0F0F"/><path fill-rule="evenodd" clip-rule="evenodd" d="M231 189.223c6.75 0 12.222-5.472 12.222-12.222 0-6.751-5.472-12.223-12.222-12.223-6.75 0-12.222 5.472-12.222 12.223 0 6.75 5.472 12.222 12.222 12.222zm0-2.23c-5.519 0-9.992-4.474-9.992-9.992 0-5.519 4.473-9.993 9.992-9.993 5.519 0 9.992 4.474 9.992 9.993 0 5.518-4.473 9.992-9.992 9.992z" fill="#0F0F0F"/><path d="M28.032 40.288c-1.296 0-2.504-.208-3.624-.624a8.664 8.664 0 01-2.88-1.824 8.564 8.564 0 01-1.92-2.76c-.448-1.056-.672-2.216-.672-3.48 0-1.264.224-2.424.672-3.48a8.564 8.564 0 011.92-2.76 8.616 8.616 0 012.904-1.8c1.104-.432 2.312-.648 3.624-.648 1.456 0 2.768.256 3.936.768a7.566 7.566 0 012.976 2.208l-2.496 2.304c-.576-.656-1.216-1.144-1.92-1.464a5.28 5.28 0 00-2.304-.504c-.784 0-1.504.128-2.16.384a4.897 4.897 0 00-1.704 1.104 5.194 5.194 0 00-1.128 1.704c-.256.656-.384 1.384-.384 2.184 0 .8.128 1.528.384 2.184a5.194 5.194 0 001.128 1.704c.48.48 1.048.848 1.704 1.104a5.893 5.893 0 002.16.384c.832 0 1.6-.16 2.304-.48.704-.336 1.344-.84 1.92-1.512l2.496 2.304a7.78 7.78 0 01-2.976 2.232c-1.168.512-2.488.768-3.96.768zm17.37 0c-1.328 0-2.56-.216-3.696-.648a8.878 8.878 0 01-2.928-1.824 8.564 8.564 0 01-1.92-2.76c-.448-1.056-.672-2.208-.672-3.456 0-1.248.224-2.4.672-3.456a8.39 8.39 0 011.944-2.76 8.878 8.878 0 012.928-1.824c1.12-.432 2.336-.648 3.648-.648 1.328 0 2.544.216 3.648.648a8.61 8.61 0 012.904 1.824 8.39 8.39 0 011.944 2.76c.464 1.04.696 2.192.696 3.456 0 1.248-.232 2.408-.696 3.48a8.39 8.39 0 01-1.944 2.76c-.816.768-1.784 1.368-2.904 1.8-1.104.432-2.312.648-3.624.648zm-.024-3.312c.752 0 1.44-.128 2.064-.384a4.897 4.897 0 002.784-2.808c.272-.656.408-1.384.408-2.184 0-.8-.136-1.528-.408-2.184a4.897 4.897 0 00-1.104-1.704 4.702 4.702 0 00-1.656-1.104 5.571 5.571 0 00-2.088-.384c-.752 0-1.448.128-2.088.384a5.009 5.009 0 00-1.656 1.104 5.194 5.194 0 00-1.128 1.704c-.256.656-.384 1.384-.384 2.184 0 .784.128 1.512.384 2.184.272.656.64 1.224 1.104 1.704.48.48 1.04.848 1.68 1.104.64.256 1.336.384 2.088.384zM57.492 40V23.2h3.216l7.152 11.856h-1.704L73.188 23.2h3.192l.048 16.8H72.78l-.024-11.208h.672l-5.616 9.432H66.06l-5.736-9.432h.816V40h-3.648zm22.922 0V23.2h3.216l7.152 11.856h-1.704L96.11 23.2h3.192L99.35 40h-3.648l-.024-11.208h.672l-5.616 9.432h-1.752l-5.736-9.432h.816V40h-3.648zm26.498-10.032H115v3.024h-8.088v-3.024zm.288 6.912h9.144V40h-13.008V23.2h12.696v3.12H107.2v10.56zM119.437 40V23.2h3.216l9.912 12.096h-1.56V23.2h3.84V40h-3.192l-9.936-12.096h1.56V40h-3.84zm22.863 0V26.368h-5.376V23.2h14.64v3.168h-5.376V40H142.3zm23.193 0l-7.248-16.8h4.2l6.336 14.88h-2.472l6.432-14.88h3.864L169.333 40h-3.84zm20.487.288c-1.328 0-2.56-.216-3.696-.648a8.878 8.878 0 01-2.928-1.824 8.564 8.564 0 01-1.92-2.76c-.448-1.056-.672-2.208-.672-3.456 0-1.248.224-2.4.672-3.456a8.39 8.39 0 011.944-2.76 8.878 8.878 0 012.928-1.824c1.12-.432 2.336-.648 3.648-.648 1.328 0 2.544.216 3.648.648a8.61 8.61 0 012.904 1.824 8.39 8.39 0 011.944 2.76c.464 1.04.696 2.192.696 3.456 0 1.248-.232 2.408-.696 3.48a8.39 8.39 0 01-1.944 2.76c-.816.768-1.784 1.368-2.904 1.8-1.104.432-2.312.648-3.624.648zm-.024-3.312c.752 0 1.44-.128 2.064-.384a4.897 4.897 0 002.784-2.808c.272-.656.408-1.384.408-2.184 0-.8-.136-1.528-.408-2.184a4.897 4.897 0 00-1.104-1.704 4.702 4.702 0 00-1.656-1.104 5.571 5.571 0 00-2.088-.384c-.752 0-1.448.128-2.088.384a5.009 5.009 0 00-1.656 1.104 5.194 5.194 0 00-1.128 1.704c-.256.656-.384 1.384-.384 2.184 0 .784.128 1.512.384 2.184.272.656.64 1.224 1.104 1.704.48.48 1.04.848 1.68 1.104.64.256 1.336.384 2.088.384zm19.578 3.312c-2.384 0-4.248-.664-5.592-1.992-1.344-1.328-2.016-3.224-2.016-5.688V23.2h3.888v9.264c0 1.6.328 2.752.984 3.456.656.704 1.576 1.056 2.76 1.056 1.184 0 2.104-.352 2.76-1.056.656-.704.984-1.856.984-3.456V23.2h3.84v9.408c0 2.464-.672 4.36-2.016 5.688-1.344 1.328-3.208 1.992-5.592 1.992zm16.97 0c-1.344 0-2.632-.176-3.864-.528-1.232-.368-2.224-.84-2.976-1.416l1.32-2.928c.72.512 1.568.936 2.544 1.272.992.32 1.992.48 3 .48.768 0 1.384-.072 1.848-.216.48-.16.832-.376 1.056-.648a1.43 1.43 0 00.336-.936c0-.448-.176-.8-.528-1.056-.352-.272-.816-.488-1.392-.648a20.999 20.999 0 00-1.92-.48 27.233 27.233 0 01-2.088-.576 8.91 8.91 0 01-1.896-.864 4.358 4.358 0 01-1.416-1.392c-.352-.576-.528-1.312-.528-2.208 0-.96.256-1.832.768-2.616.528-.8 1.312-1.432 2.352-1.896 1.056-.48 2.376-.72 3.96-.72 1.056 0 2.096.128 3.12.384 1.024.24 1.928.608 2.712 1.104l-1.2 2.952a9.82 9.82 0 00-2.352-.984 8.363 8.363 0 00-2.304-.336c-.752 0-1.368.088-1.848.264-.48.176-.824.408-1.032.696a1.535 1.535 0 00-.312.96c0 .432.176.784.528 1.056.352.256.816.464 1.392.624.576.16 1.208.32 1.896.48.704.16 1.4.344 2.088.552a8.02 8.02 0 011.92.84c.576.352 1.04.816 1.392 1.392.368.576.552 1.304.552 2.184 0 .944-.264 1.808-.792 2.592s-1.32 1.416-2.376 1.896c-1.04.48-2.36.72-3.96.72zm-196.992 29c-1.344 0-2.632-.176-3.864-.528-1.232-.368-2.224-.84-2.976-1.416l1.32-2.928c.72.512 1.568.936 2.544 1.272.992.32 1.992.48 3 .48.768 0 1.384-.072 1.848-.216.48-.16.832-.376 1.056-.648a1.43 1.43 0 00.336-.936c0-.448-.176-.8-.528-1.056-.352-.272-.816-.488-1.392-.648a20.999 20.999 0 00-1.92-.48 27.233 27.233 0 01-2.088-.576 8.91 8.91 0 01-1.896-.864 4.358 4.358 0 01-1.416-1.392c-.352-.576-.528-1.312-.528-2.208 0-.96.256-1.832.768-2.616.528-.8 1.312-1.432 2.352-1.896 1.056-.48 2.376-.72 3.96-.72 1.056 0 2.096.128 3.12.384 1.024.24 1.928.608 2.712 1.104l-1.2 2.952a9.82 9.82 0 00-2.352-.984 8.363 8.363 0 00-2.304-.336c-.752 0-1.368.088-1.848.264-.48.176-.824.408-1.032.696a1.535 1.535 0 00-.312.96c0 .432.176.784.528 1.056.352.256.816.464 1.392.624.576.16 1.208.32 1.896.48.704.16 1.4.344 2.088.552a8.02 8.02 0 011.92.84c.576.352 1.04.816 1.392 1.392.368.576.552 1.304.552 2.184 0 .944-.264 1.808-.792 2.592s-1.32 1.416-2.376 1.896c-1.04.48-2.36.72-3.96.72zm13.36-10.32h8.089v3.024h-8.088v-3.024zm.289 6.912h9.144V69H35.297V52.2h12.696v3.12H39.16v10.56zM51.398 69V52.2h3.216l9.912 12.096h-1.56V52.2h3.84V69h-3.192l-9.936-12.096h1.56V69h-3.84zm22.863 0V55.368h-5.376V52.2h14.64v3.168H78.15V69h-3.888zm14.932-10.032h8.088v3.024h-8.088v-3.024zm.288 6.912h9.144V69H85.617V52.2h12.696v3.12h-8.832v10.56zM100.639 69v-2.52l10.392-12.528.48 1.416h-10.68V52.2h14.136v2.52l-10.368 12.528-.48-1.416h11.208V69h-14.688zm16.297-5.256v-3h6.792v3h-6.792zM131.345 69l-7.249-16.8h4.201l6.336 14.88h-2.472l6.432-14.88h3.864L135.185 69h-3.84zm20.487.288c-1.328 0-2.56-.216-3.696-.648a8.878 8.878 0 01-2.928-1.824 8.564 8.564 0 01-1.92-2.76c-.448-1.056-.672-2.208-.672-3.456 0-1.248.224-2.4.672-3.456a8.39 8.39 0 011.944-2.76 8.878 8.878 0 012.928-1.824c1.12-.432 2.336-.648 3.648-.648 1.328 0 2.544.216 3.648.648a8.61 8.61 0 012.904 1.824 8.39 8.39 0 011.944 2.76c.464 1.04.696 2.192.696 3.456 0 1.248-.232 2.408-.696 3.48a8.39 8.39 0 01-1.944 2.76c-.816.768-1.784 1.368-2.904 1.8-1.104.432-2.312.648-3.624.648zm-.024-3.312c.752 0 1.44-.128 2.064-.384a4.897 4.897 0 002.784-2.808c.272-.656.408-1.384.408-2.184 0-.8-.136-1.528-.408-2.184a4.897 4.897 0 00-1.104-1.704 4.702 4.702 0 00-1.656-1.104 5.571 5.571 0 00-2.088-.384c-.752 0-1.448.128-2.088.384a5.009 5.009 0 00-1.656 1.104 5.194 5.194 0 00-1.128 1.704c-.256.656-.384 1.384-.384 2.184 0 .784.128 1.512.384 2.184.272.656.64 1.224 1.104 1.704.48.48 1.04.848 1.68 1.104.64.256 1.336.384 2.088.384zm19.578 3.312c-2.384 0-4.248-.664-5.592-1.992-1.344-1.328-2.016-3.224-2.016-5.688V52.2h3.888v9.264c0 1.6.328 2.752.984 3.456.656.704 1.576 1.056 2.76 1.056 1.184 0 2.104-.352 2.76-1.056.656-.704.984-1.856.984-3.456V52.2h3.84v9.408c0 2.464-.672 4.36-2.016 5.688-1.344 1.328-3.208 1.992-5.592 1.992zm16.97 0c-1.344 0-2.632-.176-3.864-.528-1.232-.368-2.224-.84-2.976-1.416l1.32-2.928c.72.512 1.568.936 2.544 1.272.992.32 1.992.48 3 .48.768 0 1.384-.072 1.848-.216.48-.16.832-.376 1.056-.648a1.43 1.43 0 00.336-.936c0-.448-.176-.8-.528-1.056-.352-.272-.816-.488-1.392-.648a20.999 20.999 0 00-1.92-.48 27.233 27.233 0 01-2.088-.576 8.91 8.91 0 01-1.896-.864 4.358 4.358 0 01-1.416-1.392c-.352-.576-.528-1.312-.528-2.208 0-.96.256-1.832.768-2.616.528-.8 1.312-1.432 2.352-1.896 1.056-.48 2.376-.72 3.96-.72 1.056 0 2.096.128 3.12.384 1.024.24 1.928.608 2.712 1.104l-1.2 2.952a9.82 9.82 0 00-2.352-.984 8.363 8.363 0 00-2.304-.336c-.752 0-1.368.088-1.848.264-.48.176-.824.408-1.032.696a1.535 1.535 0 00-.312.96c0 .432.176.784.528 1.056.352.256.816.464 1.392.624.576.16 1.208.32 1.896.48.704.16 1.4.344 2.088.552a8.02 8.02 0 011.92.84c.576.352 1.04.816 1.392 1.392.368.576.552 1.304.552 2.184 0 .944-.264 1.808-.792 2.592s-1.32 1.416-2.376 1.896c-1.04.48-2.36.72-3.96.72zm19.797-6.12c0-.56.088-1.056.264-1.488.192-.432.424-.816.696-1.152a10.1 10.1 0 01.912-.936c.32-.288.616-.56.888-.816.288-.272.52-.552.696-.84.192-.288.288-.608.288-.96 0-.576-.24-1.04-.72-1.392-.464-.352-1.088-.528-1.872-.528-.752 0-1.424.16-2.016.48a3.928 3.928 0 00-1.464 1.296l-2.904-1.704c.64-.976 1.528-1.752 2.664-2.328 1.136-.592 2.512-.888 4.128-.888 1.2 0 2.256.176 3.168.528.912.336 1.624.832 2.136 1.488.528.656.792 1.464.792 2.424 0 .624-.096 1.176-.288 1.656-.192.48-.44.896-.744 1.248s-.632.68-.984.984c-.336.304-.656.6-.96.888-.304.288-.56.592-.768.912-.192.32-.288.696-.288 1.128h-3.624zm1.824 6.024c-.672 0-1.224-.216-1.656-.648a2.1 2.1 0 01-.648-1.536c0-.608.216-1.112.648-1.512.432-.416.984-.624 1.656-.624.688 0 1.24.208 1.656.624.432.4.648.904.648 1.512a2.1 2.1 0 01-.648 1.536c-.416.432-.968.648-1.656.648z" fill="#F5F5F5"/><rect x="44" y="277" width="241" height="35" rx="17.5" fill="#2B1737"/><path d="M94.742 300v-11.2h2.144l4.768 7.904h-1.136l4.688-7.904h2.128l.032 11.2h-2.432l-.016-7.472h.448l-3.744 6.288h-1.168l-3.824-6.288h.544V300h-2.432zm20.721.192a6.88 6.88 0 01-2.464-.432 5.923 5.923 0 01-1.952-1.216 5.723 5.723 0 01-1.28-1.84 5.85 5.85 0 01-.448-2.304c0-.832.15-1.6.448-2.304a5.616 5.616 0 011.296-1.84 5.923 5.923 0 011.952-1.216 6.705 6.705 0 012.432-.432c.886 0 1.696.144 2.432.432a5.732 5.732 0 011.936 1.216 5.587 5.587 0 011.296 1.84c.31.693.464 1.461.464 2.304 0 .832-.154 1.605-.464 2.32a5.587 5.587 0 01-1.296 1.84 5.87 5.87 0 01-1.936 1.2 6.573 6.573 0 01-2.416.432zm-.016-2.208c.502 0 .96-.085 1.376-.256a3.258 3.258 0 001.856-1.872c.182-.437.272-.923.272-1.456 0-.533-.09-1.019-.272-1.456a3.258 3.258 0 00-.736-1.136 3.133 3.133 0 00-1.104-.736 3.703 3.703 0 00-1.392-.256 3.71 3.71 0 00-1.392.256 3.344 3.344 0 00-1.104.736c-.32.32-.57.699-.752 1.136-.17.437-.256.923-.256 1.456 0 .523.086 1.008.256 1.456.182.437.427.816.736 1.136.32.32.694.565 1.12.736a3.71 3.71 0 001.392.256zm13.516 2.208a6.88 6.88 0 01-2.464-.432 5.923 5.923 0 01-1.952-1.216 5.723 5.723 0 01-1.28-1.84 5.85 5.85 0 01-.448-2.304c0-.832.15-1.6.448-2.304a5.616 5.616 0 011.296-1.84 5.923 5.923 0 011.952-1.216 6.705 6.705 0 012.432-.432c.886 0 1.696.144 2.432.432a5.732 5.732 0 011.936 1.216 5.587 5.587 0 011.296 1.84c.31.693.464 1.461.464 2.304 0 .832-.154 1.605-.464 2.32a5.587 5.587 0 01-1.296 1.84 5.87 5.87 0 01-1.936 1.2 6.573 6.573 0 01-2.416.432zm-.016-2.208c.502 0 .96-.085 1.376-.256a3.258 3.258 0 001.856-1.872c.182-.437.272-.923.272-1.456 0-.533-.09-1.019-.272-1.456a3.258 3.258 0 00-.736-1.136 3.133 3.133 0 00-1.104-.736 3.703 3.703 0 00-1.392-.256 3.71 3.71 0 00-1.392.256 3.344 3.344 0 00-1.104.736c-.32.32-.57.699-.752 1.136-.17.437-.256.923-.256 1.456 0 .523.086 1.008.256 1.456.182.437.427.816.736 1.136.32.32.694.565 1.12.736a3.71 3.71 0 001.392.256zm8.076 2.016v-11.2h5.088c1.216 0 2.288.235 3.216.704.928.459 1.654 1.104 2.176 1.936.523.832.784 1.819.784 2.96 0 1.131-.261 2.117-.784 2.96-.522.832-1.248 1.483-2.176 1.952-.928.459-2 .688-3.216.688h-5.088zm2.592-2.128h2.368c.747 0 1.392-.139 1.936-.416a3.056 3.056 0 001.28-1.216c.31-.523.464-1.136.464-1.84 0-.715-.154-1.328-.464-1.84a2.955 2.955 0 00-1.28-1.2c-.544-.288-1.189-.432-1.936-.432h-2.368v6.944zM152.406 300v-9.088h-3.584V288.8h9.76v2.112h-3.584V300h-2.592zm7.57 0v-11.2h4.848c1.003 0 1.867.165 2.592.496.726.32 1.286.784 1.68 1.392.395.608.592 1.333.592 2.176 0 .832-.197 1.552-.592 2.16-.394.597-.954 1.056-1.68 1.376-.725.32-1.589.48-2.592.48h-3.408l1.152-1.136V300h-2.592zm7.12 0l-2.8-4.064h2.768l2.832 4.064h-2.8zm-4.528-3.968l-1.152-1.216h3.264c.8 0 1.398-.171 1.792-.512.395-.352.592-.832.592-1.44 0-.619-.197-1.099-.592-1.44-.394-.341-.992-.512-1.792-.512h-3.264l1.152-1.232v6.352zM170.27 300l4.992-11.2h2.56l5.008 11.2h-2.72l-4.096-9.888h1.024L172.926 300h-2.656zm2.496-2.4l.688-1.968h5.76l.704 1.968h-7.152zm16.43 2.592a6.89 6.89 0 01-2.416-.416 5.77 5.77 0 01-1.92-1.216 5.708 5.708 0 01-1.28-1.84c-.299-.704-.448-1.477-.448-2.32 0-.843.149-1.616.448-2.32a5.708 5.708 0 011.28-1.84 5.727 5.727 0 011.936-1.2 6.573 6.573 0 012.416-.432c.97 0 1.845.171 2.624.512.789.331 1.45.821 1.984 1.472l-1.664 1.536a3.8 3.8 0 00-1.28-.976 3.524 3.524 0 00-1.536-.336c-.523 0-1.003.085-1.44.256a3.263 3.263 0 00-1.136.736c-.32.32-.571.699-.752 1.136a3.967 3.967 0 00-.256 1.456c0 .533.085 1.019.256 1.456.181.437.432.816.752 1.136.32.32.698.565 1.136.736.437.171.917.256 1.44.256.554 0 1.066-.107 1.536-.32a3.91 3.91 0 001.28-1.008l1.664 1.536a5.188 5.188 0 01-1.984 1.488c-.779.341-1.659.512-2.64.512zm8.694-2.752l-.144-2.992 5.36-5.648h2.88l-4.832 5.2-1.44 1.536-1.824 1.904zm-2.32 2.56v-11.2h2.576V300h-2.576zm7.664 0l-3.984-4.88 1.696-1.84 5.312 6.72h-3.024zm6.564-6.688h5.392v2.016h-5.392v-2.016zm.192 4.608h6.096V300h-8.672v-11.2h8.464v2.08h-5.888v7.04zm8.158 2.08v-11.2h4.848c1.003 0 1.867.165 2.592.496.726.32 1.286.784 1.68 1.392.395.608.592 1.333.592 2.176 0 .832-.197 1.552-.592 2.16-.394.597-.954 1.056-1.68 1.376-.725.32-1.589.48-2.592.48h-3.408l1.152-1.136V300h-2.592zm7.12 0l-2.8-4.064h2.768l2.832 4.064h-2.8zm-4.528-3.968l-1.152-1.216h3.264c.8 0 1.398-.171 1.792-.512.395-.352.592-.832.592-1.44 0-.619-.197-1.099-.592-1.44-.394-.341-.992-.512-1.792-.512h-3.264l1.152-1.232v6.352z" fill="#fff"/><defs><filter id="a" x="0" y="0" width="328" height="332" filterUnits="userSpaceOnUse" color-interpolation-filters="sRGB"><feFlood flood-opacity="0" result="BackgroundImageFix"/><feBlend in="SourceGraphic" in2="BackgroundImageFix" result="shape"/><feColorMatrix in="SourceAlpha" values="0 0 0 0 0 0 0 0 0 0 0 0 0 0 0 0 0 0 127 0" result="hardAlpha"/><feOffset dy="4"/><feGaussianBlur stdDeviation="4.05"/><feComposite in2="hardAlpha" operator="arithmetic" k2="-1" k3="1"/><feColorMatrix values="0 0 0 0 0 0 0 0 0 0 0 0 0 0 0 0 0 0 0.25 0"/><feBlend in2="shape" result="effect1_innerShadow_1118_1039"/></filter><filter id="b" x="274" y="94" width="48" height="48" filterUnits="userSpaceOnUse" color-interpolation-filters="sRGB"><feFlood flood-opacity="0" result="BackgroundImageFix"/><feBlend in="SourceGraphic" in2="BackgroundImageFix" result="shape"/><feColorMatrix in="SourceAlpha" values="0 0 0 0 0 0 0 0 0 0 0 0 0 0 0 0 0 0 127 0" result="hardAlpha"/><feOffset dx="-5" dy="-4"/><feGaussianBlur stdDeviation="2"/><feComposite in2="hardAlpha" operator="arithmetic" k2="-1" k3="1"/><feColorMatrix values="0 0 0 0 0.439216 0 0 0 0 0.588235 0 0 0 0 0.819608 0 0 0 0.75 0"/><feBlend in2="shape" result="effect1_innerShadow_1118_1039"/><feColorMatrix in="SourceAlpha" values="0 0 0 0 0 0 0 0 0 0 0 0 0 0 0 0 0 0 127 0" result="hardAlpha"/><feOffset dx="6" dy="8"/><feGaussianBlur stdDeviation="2"/><feComposite in2="hardAlpha" operator="arithmetic" k2="-1" k3="1"/><feColorMatrix values="0 0 0 0 0.810687 0 0 0 0 0.854908 0 0 0 0 0.923568 0 0 0 0.74 0"/><feBlend in2="effect1_innerShadow_1118_1039" result="effect2_innerShadow_1118_1039"/></filter><filter id="c" x="207" y="214" width="48" height="48" filterUnits="userSpaceOnUse" color-interpolation-filters="sRGB"><feFlood flood-opacity="0" result="BackgroundImageFix"/><feBlend in="SourceGraphic" in2="BackgroundImageFix" result="shape"/><feColorMatrix in="SourceAlpha" values="0 0 0 0 0 0 0 0 0 0 0 0 0 0 0 0 0 0 127 0" result="hardAlpha"/><feOffset dx="-5" dy="-4"/><feGaussianBlur stdDeviation="2"/><feComposite in2="hardAlpha" operator="arithmetic" k2="-1" k3="1"/><feColorMatrix values="0 0 0 0 0.439216 0 0 0 0 0.588235 0 0 0 0 0.819608 0 0 0 0.75 0"/><feBlend in2="shape" result="effect1_innerShadow_1118_1039"/><feColorMatrix in="SourceAlpha" values="0 0 0 0 0 0 0 0 0 0 0 0 0 0 0 0 0 0 127 0" result="hardAlpha"/><feOffset dx="6" dy="8"/><feGaussianBlur stdDeviation="2"/><feComposite in2="hardAlpha" operator="arithmetic" k2="-1" k3="1"/><feColorMatrix values="0 0 0 0 0.810687 0 0 0 0 0.854908 0 0 0 0 0.923568 0 0 0 0.74 0"/><feBlend in2="effect1_innerShadow_1118_1039" result="effect2_innerShadow_1118_1039"/></filter><filter id="d" x="6" y="94" width="48" height="48" filterUnits="userSpaceOnUse" color-interpolation-filters="sRGB"><feFlood flood-opacity="0" result="BackgroundImageFix"/><feBlend in="SourceGraphic" in2="BackgroundImageFix" result="shape"/><feColorMatrix in="SourceAlpha" values="0 0 0 0 0 0 0 0 0 0 0 0 0 0 0 0 0 0 127 0" result="hardAlpha"/><feOffset dx="-5" dy="-5"/><feGaussianBlur stdDeviation="2"/><feComposite in2="hardAlpha" operator="arithmetic" k2="-1" k3="1"/><feColorMatrix values="0 0 0 0 0.951346 0 0 0 0 0.816572 0 0 0 0 0.277476 0 0 0 1 0"/><feBlend in2="shape" result="effect1_innerShadow_1118_1039"/><feColorMatrix in="SourceAlpha" values="0 0 0 0 0 0 0 0 0 0 0 0 0 0 0 0 0 0 127 0" result="hardAlpha"/><feOffset dx="4" dy="5"/><feGaussianBlur stdDeviation="2"/><feComposite in2="hardAlpha" operator="arithmetic" k2="-1" k3="1"/><feColorMatrix values="0 0 0 0 0.993012 0 0 0 0 0.928467 0 0 0 0 0.670283 0 0 0 1 0"/><feBlend in2="effect1_innerShadow_1118_1039" result="effect2_innerShadow_1118_1039"/></filter><filter id="e" x="140" y="214" width="48" height="48" filterUnits="userSpaceOnUse" color-interpolation-filters="sRGB"><feFlood flood-opacity="0" result="BackgroundImageFix"/><feBlend in="SourceGraphic" in2="BackgroundImageFix" result="shape"/><feColorMatrix in="SourceAlpha" values="0 0 0 0 0 0 0 0 0 0 0 0 0 0 0 0 0 0 127 0" result="hardAlpha"/><feOffset dx="-5" dy="-5"/><feGaussianBlur stdDeviation="2"/><feComposite in2="hardAlpha" operator="arithmetic" k2="-1" k3="1"/><feColorMatrix values="0 0 0 0 0.951346 0 0 0 0 0.816572 0 0 0 0 0.277476 0 0 0 1 0"/><feBlend in2="shape" result="effect1_innerShadow_1118_1039"/><feColorMatrix in="SourceAlpha" values="0 0 0 0 0 0 0 0 0 0 0 0 0 0 0 0 0 0 127 0" result="hardAlpha"/><feOffset dx="4" dy="5"/><feGaussianBlur stdDeviation="2"/><feComposite in2="hardAlpha" operator="arithmetic" k2="-1" k3="1"/><feColorMatrix values="0 0 0 0 0.993012 0 0 0 0 0.928467 0 0 0 0 0.670283 0 0 0 1 0"/><feBlend in2="effect1_innerShadow_1118_1039" result="effect2_innerShadow_1118_1039"/></filter><filter id="f" x="274" y="213" width="48" height="50.797" filterUnits="userSpaceOnUse" color-interpolation-filters="sRGB"><feFlood flood-opacity="0" result="BackgroundImageFix"/><feBlend in="SourceGraphic" in2="BackgroundImageFix" result="shape"/><feColorMatrix in="SourceAlpha" values="0 0 0 0 0 0 0 0 0 0 0 0 0 0 0 0 0 0 127 0" result="hardAlpha"/><feOffset dx="-5" dy="-5"/><feGaussianBlur stdDeviation="2"/><feComposite in2="hardAlpha" operator="arithmetic" k2="-1" k3="1"/><feColorMatrix values="0 0 0 0 0.951346 0 0 0 0 0.816572 0 0 0 0 0.277476 0 0 0 1 0"/><feBlend in2="shape" result="effect1_innerShadow_1118_1039"/><feColorMatrix in="SourceAlpha" values="0 0 0 0 0 0 0 0 0 0 0 0 0 0 0 0 0 0 127 0" result="hardAlpha"/><feOffset dx="4" dy="5"/><feGaussianBlur stdDeviation="2"/><feComposite in2="hardAlpha" operator="arithmetic" k2="-1" k3="1"/><feColorMatrix values="0 0 0 0 0.993012 0 0 0 0 0.928467 0 0 0 0 0.670283 0 0 0 1 0"/><feBlend in2="effect1_innerShadow_1118_1039" result="effect2_innerShadow_1118_1039"/></filter><filter id="g" x="73" y="94" width="48" height="48" filterUnits="userSpaceOnUse" color-interpolation-filters="sRGB"><feFlood flood-opacity="0" result="BackgroundImageFix"/><feBlend in="SourceGraphic" in2="BackgroundImageFix" result="shape"/><feColorMatrix in="SourceAlpha" values="0 0 0 0 0 0 0 0 0 0 0 0 0 0 0 0 0 0 127 0" result="hardAlpha"/><feOffset dx="-9" dy="-5"/><feGaussianBlur stdDeviation="2"/><feComposite in2="hardAlpha" operator="arithmetic" k2="-1" k3="1"/><feColorMatrix values="0 0 0 0 0.584679 0 0 0 0 0.543264 0 0 0 0 0.501849 0 0 0 1 0"/><feBlend in2="shape" result="effect1_innerShadow_1118_1039"/><feColorMatrix in="SourceAlpha" values="0 0 0 0 0 0 0 0 0 0 0 0 0 0 0 0 0 0 127 0" result="hardAlpha"/><feOffset dx="6" dy="5"/><feGaussianBlur stdDeviation="2"/><feComposite in2="hardAlpha" operator="arithmetic" k2="-1" k3="1"/><feColorMatrix values="0 0 0 0 0.759679 0 0 0 0 0.711144 0 0 0 0 0.662609 0 0 0 1 0"/><feBlend in2="effect1_innerShadow_1118_1039" result="effect2_innerShadow_1118_1039"/></filter><filter id="h" x="6" y="214" width="48" height="48" filterUnits="userSpaceOnUse" color-interpolation-filters="sRGB"><feFlood flood-opacity="0" result="BackgroundImageFix"/><feBlend in="SourceGraphic" in2="BackgroundImageFix" result="shape"/><feColorMatrix in="SourceAlpha" values="0 0 0 0 0 0 0 0 0 0 0 0 0 0 0 0 0 0 127 0" result="hardAlpha"/><feOffset dx="-9" dy="-5"/><feGaussianBlur stdDeviation="2"/><feComposite in2="hardAlpha" operator="arithmetic" k2="-1" k3="1"/><feColorMatrix values="0 0 0 0 0.584679 0 0 0 0 0.543264 0 0 0 0 0.501849 0 0 0 1 0"/><feBlend in2="shape" result="effect1_innerShadow_1118_1039"/><feColorMatrix in="SourceAlpha" values="0 0 0 0 0 0 0 0 0 0 0 0 0 0 0 0 0 0 127 0" result="hardAlpha"/><feOffset dx="6" dy="5"/><feGaussianBlur stdDeviation="2"/><feComposite in2="hardAlpha" operator="arithmetic" k2="-1" k3="1"/><feColorMatrix values="0 0 0 0 0.759679 0 0 0 0 0.711144 0 0 0 0 0.662609 0 0 0 1 0"/><feBlend in2="effect1_innerShadow_1118_1039" result="effect2_innerShadow_1118_1039"/></filter><filter id="i" x="207" y="96" width="48" height="46" filterUnits="userSpaceOnUse" color-interpolation-filters="sRGB"><feFlood flood-opacity="0" result="BackgroundImageFix"/><feBlend in="SourceGraphic" in2="BackgroundImageFix" result="shape"/><feColorMatrix in="SourceAlpha" values="0 0 0 0 0 0 0 0 0 0 0 0 0 0 0 0 0 0 127 0" result="hardAlpha"/><feOffset dx="-6" dy="-2"/><feGaussianBlur stdDeviation="2"/><feComposite in2="hardAlpha" operator="arithmetic" k2="-1" k3="1"/><feColorMatrix values="0 0 0 0 0.769794 0 0 0 0 0.556806 0 0 0 0 0.879167 0 0 0 1 0"/><feBlend in2="shape" result="effect1_innerShadow_1118_1039"/><feColorMatrix in="SourceAlpha" values="0 0 0 0 0 0 0 0 0 0 0 0 0 0 0 0 0 0 127 0" result="hardAlpha"/><feOffset dx="6" dy="5"/><feGaussianBlur stdDeviation="2"/><feComposite in2="hardAlpha" operator="arithmetic" k2="-1" k3="1"/><feColorMatrix values="0 0 0 0 0.905496 0 0 0 0 0.805392 0 0 0 0 0.956901 0 0 0 1 0"/><feBlend in2="effect1_innerShadow_1118_1039" result="effect2_innerShadow_1118_1039"/></filter><filter id="j" x="140" y="95" width="48" height="47" filterUnits="userSpaceOnUse" color-interpolation-filters="sRGB"><feFlood flood-opacity="0" result="BackgroundImageFix"/><feBlend in="SourceGraphic" in2="BackgroundImageFix" result="shape"/><feColorMatrix in="SourceAlpha" values="0 0 0 0 0 0 0 0 0 0 0 0 0 0 0 0 0 0 127 0" result="hardAlpha"/><feOffset dx="-5" dy="-3"/><feGaussianBlur stdDeviation="2"/><feComposite in2="hardAlpha" operator="arithmetic" k2="-1" k3="1"/><feColorMatrix values="0 0 0 0 0.818012 0 0 0 0 0.37727 0 0 0 0 0.243131 0 0 0 1 0"/><feBlend in2="shape" result="effect1_innerShadow_1118_1039"/><feColorMatrix in="SourceAlpha" values="0 0 0 0 0 0 0 0 0 0 0 0 0 0 0 0 0 0 127 0" result="hardAlpha"/><feOffset dx="4" dy="4"/><feGaussianBlur stdDeviation="2"/><feComposite in2="hardAlpha" operator="arithmetic" k2="-1" k3="1"/><feColorMatrix values="0 0 0 0 1 0 0 0 0 0.629444 0 0 0 0 0.516667 0 0 0 1 0"/><feBlend in2="effect1_innerShadow_1118_1039" result="effect2_innerShadow_1118_1039"/></filter><filter id="k" x="73" y="215" width="48" height="47" filterUnits="userSpaceOnUse" color-interpolation-filters="sRGB"><feFlood flood-opacity="0" result="BackgroundImageFix"/><feBlend in="SourceGraphic" in2="BackgroundImageFix" result="shape"/><feColorMatrix in="SourceAlpha" values="0 0 0 0 0 0 0 0 0 0 0 0 0 0 0 0 0 0 127 0" result="hardAlpha"/><feOffset dx="-5" dy="-3"/><feGaussianBlur stdDeviation="2"/><feComposite in2="hardAlpha" operator="arithmetic" k2="-1" k3="1"/><feColorMatrix values="0 0 0 0 0.818012 0 0 0 0 0.37727 0 0 0 0 0.243131 0 0 0 1 0"/><feBlend in2="shape" result="effect1_innerShadow_1118_1039"/><feColorMatrix in="SourceAlpha" values="0 0 0 0 0 0 0 0 0 0 0 0 0 0 0 0 0 0 127 0" result="hardAlpha"/><feOffset dx="4" dy="4"/><feGaussianBlur stdDeviation="2"/><feComposite in2="hardAlpha" operator="arithmetic" k2="-1" k3="1"/><feColorMatrix values="0 0 0 0 1 0 0 0 0 0.629444 0 0 0 0 0.516667 0 0 0 1 0"/><feBlend in2="effect1_innerShadow_1118_1039" result="effect2_innerShadow_1118_1039"/></filter><filter id="l" x="140" y="153" width="48" height="48" filterUnits="userSpaceOnUse" color-interpolation-filters="sRGB"><feFlood flood-opacity="0" result="BackgroundImageFix"/><feBlend in="SourceGraphic" in2="BackgroundImageFix" result="shape"/><feColorMatrix in="SourceAlpha" values="0 0 0 0 0 0 0 0 0 0 0 0 0 0 0 0 0 0 127 0" result="hardAlpha"/><feOffset dx="-5" dy="-4"/><feGaussianBlur stdDeviation="2"/><feComposite in2="hardAlpha" operator="arithmetic" k2="-1" k3="1"/><feColorMatrix values="0 0 0 0 0.439216 0 0 0 0 0.588235 0 0 0 0 0.819608 0 0 0 0.75 0"/><feBlend in2="shape" result="effect1_innerShadow_1118_1039"/><feColorMatrix in="SourceAlpha" values="0 0 0 0 0 0 0 0 0 0 0 0 0 0 0 0 0 0 127 0" result="hardAlpha"/><feOffset dx="6" dy="8"/><feGaussianBlur stdDeviation="2"/><feComposite in2="hardAlpha" operator="arithmetic" k2="-1" k3="1"/><feColorMatrix values="0 0 0 0 0.810687 0 0 0 0 0.854908 0 0 0 0 0.923568 0 0 0 0.74 0"/><feBlend in2="effect1_innerShadow_1118_1039" result="effect2_innerShadow_1118_1039"/></filter><filter id="m" x="73" y="153" width="48" height="48" filterUnits="userSpaceOnUse" color-interpolation-filters="sRGB"><feFlood flood-opacity="0" result="BackgroundImageFix"/><feBlend in="SourceGraphic" in2="BackgroundImageFix" result="shape"/><feColorMatrix in="SourceAlpha" values="0 0 0 0 0 0 0 0 0 0 0 0 0 0 0 0 0 0 127 0" result="hardAlpha"/><feOffset dx="-5" dy="-5"/><feGaussianBlur stdDeviation="2"/><feComposite in2="hardAlpha" operator="arithmetic" k2="-1" k3="1"/><feColorMatrix values="0 0 0 0 0.951346 0 0 0 0 0.816572 0 0 0 0 0.277476 0 0 0 1 0"/><feBlend in2="shape" result="effect1_innerShadow_1118_1039"/><feColorMatrix in="SourceAlpha" values="0 0 0 0 0 0 0 0 0 0 0 0 0 0 0 0 0 0 127 0" result="hardAlpha"/><feOffset dx="4" dy="5"/><feGaussianBlur stdDeviation="2"/><feComposite in2="hardAlpha" operator="arithmetic" k2="-1" k3="1"/><feColorMatrix values="0 0 0 0 0.993012 0 0 0 0 0.928467 0 0 0 0 0.670283 0 0 0 1 0"/><feBlend in2="effect1_innerShadow_1118_1039" result="effect2_innerShadow_1118_1039"/></filter><filter id="n" x="274" y="153" width="48" height="48" filterUnits="userSpaceOnUse" color-interpolation-filters="sRGB"><feFlood flood-opacity="0" result="BackgroundImageFix"/><feBlend in="SourceGraphic" in2="BackgroundImageFix" result="shape"/><feColorMatrix in="SourceAlpha" values="0 0 0 0 0 0 0 0 0 0 0 0 0 0 0 0 0 0 127 0" result="hardAlpha"/><feOffset dx="-9" dy="-5"/><feGaussianBlur stdDeviation="2"/><feComposite in2="hardAlpha" operator="arithmetic" k2="-1" k3="1"/><feColorMatrix values="0 0 0 0 0.584679 0 0 0 0 0.543264 0 0 0 0 0.501849 0 0 0 1 0"/><feBlend in2="shape" result="effect1_innerShadow_1118_1039"/><feColorMatrix in="SourceAlpha" values="0 0 0 0 0 0 0 0 0 0 0 0 0 0 0 0 0 0 127 0" result="hardAlpha"/><feOffset dx="6" dy="5"/><feGaussianBlur stdDeviation="2"/><feComposite in2="hardAlpha" operator="arithmetic" k2="-1" k3="1"/><feColorMatrix values="0 0 0 0 0.759679 0 0 0 0 0.711144 0 0 0 0 0.662609 0 0 0 1 0"/><feBlend in2="effect1_innerShadow_1118_1039" result="effect2_innerShadow_1118_1039"/></filter><filter id="o" x="6" y="155" width="48" height="46" filterUnits="userSpaceOnUse" color-interpolation-filters="sRGB"><feFlood flood-opacity="0" result="BackgroundImageFix"/><feBlend in="SourceGraphic" in2="BackgroundImageFix" result="shape"/><feColorMatrix in="SourceAlpha" values="0 0 0 0 0 0 0 0 0 0 0 0 0 0 0 0 0 0 127 0" result="hardAlpha"/><feOffset dx="-6" dy="-2"/><feGaussianBlur stdDeviation="2"/><feComposite in2="hardAlpha" operator="arithmetic" k2="-1" k3="1"/><feColorMatrix values="0 0 0 0 0.769794 0 0 0 0 0.556806 0 0 0 0 0.879167 0 0 0 1 0"/><feBlend in2="shape" result="effect1_innerShadow_1118_1039"/><feColorMatrix in="SourceAlpha" values="0 0 0 0 0 0 0 0 0 0 0 0 0 0 0 0 0 0 127 0" result="hardAlpha"/><feOffset dx="6" dy="5"/><feGaussianBlur stdDeviation="2"/><feComposite in2="hardAlpha" operator="arithmetic" k2="-1" k3="1"/><feColorMatrix values="0 0 0 0 0.905496 0 0 0 0 0.805392 0 0 0 0 0.956901 0 0 0 1 0"/><feBlend in2="effect1_innerShadow_1118_1039" result="effect2_innerShadow_1118_1039"/></filter><filter id="p" x="207" y="154" width="48" height="47" filterUnits="userSpaceOnUse" color-interpolation-filters="sRGB"><feFlood flood-opacity="0" result="BackgroundImageFix"/><feBlend in="SourceGraphic" in2="BackgroundImageFix" result="shape"/><feColorMatrix in="SourceAlpha" values="0 0 0 0 0 0 0 0 0 0 0 0 0 0 0 0 0 0 127 0" result="hardAlpha"/><feOffset dx="-5" dy="-3"/><feGaussianBlur stdDeviation="2"/><feComposite in2="hardAlpha" operator="arithmetic" k2="-1" k3="1"/><feColorMatrix values="0 0 0 0 0.818012 0 0 0 0 0.37727 0 0 0 0 0.243131 0 0 0 1 0"/><feBlend in2="shape" result="effect1_innerShadow_1118_1039"/><feColorMatrix in="SourceAlpha" values="0 0 0 0 0 0 0 0 0 0 0 0 0 0 0 0 0 0 127 0" result="hardAlpha"/><feOffset dx="4" dy="4"/><feGaussianBlur stdDeviation="2"/><feComposite in2="hardAlpha" operator="arithmetic" k2="-1" k3="1"/><feColorMatrix values="0 0 0 0 1 0 0 0 0 0.629444 0 0 0 0 0.516667 0 0 0 1 0"/><feBlend in2="effect1_innerShadow_1118_1039" result="effect2_innerShadow_1118_1039"/></filter></defs></svg>