<svg width="311" height="288" viewBox="0 0 311 288" fill="none" xmlns="http://www.w3.org/2000/svg">
<rect width="307" height="288" rx="30" fill="#06064F"/>
<path d="M148.921 171.562L145.302 86.816C145.138 83.0095 143.546 79.3527 140.709 76.6901C135.11 71.4263 123.911 65.6653 105.726 75.8457C77.7908 91.4875 93.7653 114.388 93.7653 114.388C93.7653 114.388 52.4683 120.306 57.2579 151.14C58.5506 159.441 64.6057 166.359 72.8583 169.083C79.3488 171.222 88.86 173.012 102.344 172.781C134.219 172.236 148.914 171.562 148.914 171.562H148.921Z" stroke="#F5F5F5" stroke-width="8" stroke-miterlimit="10"/>
<path d="M163.331 171.562L166.95 86.816C167.114 83.0095 168.706 79.3527 171.543 76.6901C177.142 71.4263 188.34 65.6653 206.526 75.8457C234.461 91.4875 218.487 114.388 218.487 114.388C218.487 114.388 259.784 120.306 254.994 151.14C253.701 159.441 247.646 166.359 239.394 169.083C232.903 171.222 223.392 173.012 209.907 172.781C178.033 172.236 163.338 171.562 163.338 171.562H163.331Z" stroke="#F5F5F5" stroke-width="8" stroke-miterlimit="10"/>
<path d="M173.475 152.536L175.407 107.265C175.495 105.229 176.346 103.282 177.856 101.859C180.85 99.0462 186.83 95.9682 196.545 101.409C211.472 109.765 202.934 122.001 202.934 122.001C202.934 122.001 224.997 125.161 222.432 141.634C221.745 146.067 218.507 149.764 214.098 151.222C210.628 152.366 205.546 153.319 198.348 153.196C181.319 152.904 173.468 152.543 173.468 152.543L173.475 152.536Z" fill="#F5F5F5"/>
<path d="M139.185 152.536L137.253 107.265C137.165 105.229 136.314 103.282 134.804 101.859C131.81 99.0462 125.83 95.9682 116.115 101.409C101.188 109.765 109.726 122.001 109.726 122.001C109.726 122.001 87.6626 125.161 90.2275 141.634C90.9146 146.067 94.1531 149.764 98.5617 151.222C102.032 152.366 107.114 153.319 114.312 153.196C131.341 152.904 139.192 152.543 139.192 152.543L139.185 152.536Z" fill="#F5F5F5"/>
<path d="M90.7725 218.209V222.67H73.939C74.1213 220.984 74.6682 219.389 75.5796 217.885C76.4911 216.369 78.2912 214.364 80.98 211.869C83.1447 209.853 84.472 208.485 84.9619 207.768C85.6228 206.776 85.9532 205.797 85.9532 204.828C85.9532 203.757 85.6626 202.937 85.0816 202.367C84.5119 201.786 83.7201 201.496 82.7061 201.496C81.7035 201.496 80.906 201.798 80.3135 202.401C79.7211 203.005 79.3793 204.008 79.2881 205.409L74.503 204.931C74.7878 202.287 75.6822 200.39 77.1861 199.24C78.69 198.089 80.5699 197.514 82.8257 197.514C85.298 197.514 87.2406 198.18 88.6534 199.513C90.0661 200.846 90.7725 202.504 90.7725 204.486C90.7725 205.614 90.5674 206.691 90.1573 207.716C89.7585 208.73 89.1205 209.796 88.2432 210.912C87.6621 211.653 86.614 212.718 85.0987 214.108C83.5834 215.498 82.6206 216.421 82.2105 216.876C81.8117 217.332 81.487 217.777 81.2364 218.209H90.7725ZM95.1133 197.616H105.128C107.11 197.616 108.586 197.702 109.554 197.873C110.534 198.032 111.406 198.374 112.169 198.898C112.944 199.422 113.587 200.123 114.1 201C114.613 201.866 114.869 202.84 114.869 203.922C114.869 205.096 114.55 206.173 113.912 207.152C113.286 208.132 112.431 208.867 111.349 209.357C112.875 209.801 114.049 210.559 114.869 211.63C115.689 212.701 116.1 213.96 116.1 215.407C116.1 216.546 115.832 217.657 115.296 218.739C114.772 219.81 114.049 220.67 113.126 221.32C112.215 221.958 111.087 222.351 109.742 222.499C108.899 222.59 106.865 222.647 103.641 222.67H95.1133V197.616ZM100.172 201.786V207.58H103.487C105.458 207.58 106.683 207.551 107.162 207.494C108.028 207.392 108.705 207.095 109.195 206.605C109.697 206.104 109.947 205.449 109.947 204.64C109.947 203.865 109.731 203.239 109.298 202.76C108.876 202.27 108.244 201.974 107.401 201.872C106.9 201.815 105.458 201.786 103.077 201.786H100.172ZM100.172 211.75V218.449H104.855C106.677 218.449 107.834 218.397 108.324 218.295C109.076 218.158 109.685 217.828 110.152 217.304C110.631 216.768 110.87 216.056 110.87 215.167C110.87 214.416 110.688 213.778 110.323 213.253C109.959 212.729 109.429 212.348 108.734 212.108C108.05 211.869 106.558 211.75 104.256 211.75H100.172ZM130.865 216.894L135.65 217.697C135.035 219.451 134.061 220.79 132.728 221.713C131.406 222.624 129.749 223.08 127.755 223.08C124.599 223.08 122.263 222.049 120.748 219.987C119.552 218.335 118.954 216.25 118.954 213.732C118.954 210.724 119.74 208.371 121.312 206.674C122.884 204.965 124.872 204.11 127.276 204.11C129.977 204.11 132.107 205.005 133.668 206.793C135.229 208.571 135.975 211.299 135.907 214.979H123.876C123.91 216.404 124.297 217.514 125.038 218.312C125.778 219.098 126.701 219.491 127.806 219.491C128.558 219.491 129.19 219.286 129.703 218.876C130.216 218.466 130.603 217.805 130.865 216.894ZM131.139 212.04C131.105 210.65 130.746 209.596 130.062 208.878C129.378 208.149 128.547 207.785 127.567 207.785C126.519 207.785 125.653 208.166 124.969 208.93C124.286 209.693 123.95 210.73 123.961 212.04H131.139ZM139.889 197.616H149.903C151.886 197.616 153.361 197.702 154.33 197.873C155.309 198.032 156.181 198.374 156.944 198.898C157.719 199.422 158.363 200.123 158.876 201C159.388 201.866 159.645 202.84 159.645 203.922C159.645 205.096 159.326 206.173 158.688 207.152C158.061 208.132 157.206 208.867 156.124 209.357C157.651 209.801 158.824 210.559 159.645 211.63C160.465 212.701 160.875 213.96 160.875 215.407C160.875 216.546 160.607 217.657 160.072 218.739C159.548 219.81 158.824 220.67 157.901 221.32C156.99 221.958 155.862 222.351 154.518 222.499C153.675 222.59 151.641 222.647 148.417 222.67H139.889V197.616ZM144.947 201.786V207.58H148.263C150.234 207.58 151.459 207.551 151.937 207.494C152.803 207.392 153.481 207.095 153.971 206.605C154.472 206.104 154.723 205.449 154.723 204.64C154.723 203.865 154.506 203.239 154.073 202.76C153.652 202.27 153.019 201.974 152.176 201.872C151.675 201.815 150.234 201.786 147.853 201.786H144.947ZM144.947 211.75V218.449H149.63C151.453 218.449 152.609 218.397 153.099 218.295C153.851 218.158 154.461 217.828 154.928 217.304C155.406 216.768 155.646 216.056 155.646 215.167C155.646 214.416 155.463 213.778 155.099 213.253C154.734 212.729 154.204 212.348 153.509 212.108C152.826 211.869 151.333 211.75 149.032 211.75H144.947ZM175.641 216.894L180.426 217.697C179.811 219.451 178.836 220.79 177.503 221.713C176.182 222.624 174.524 223.08 172.53 223.08C169.374 223.08 167.039 222.049 165.523 219.987C164.327 218.335 163.729 216.25 163.729 213.732C163.729 210.724 164.515 208.371 166.087 206.674C167.66 204.965 169.648 204.11 172.052 204.11C174.752 204.11 176.883 205.005 178.443 206.793C180.004 208.571 180.751 211.299 180.682 214.979H168.651C168.685 216.404 169.072 217.514 169.813 218.312C170.554 219.098 171.476 219.491 172.582 219.491C173.334 219.491 173.966 219.286 174.479 218.876C174.991 218.466 175.379 217.805 175.641 216.894ZM175.914 212.04C175.88 210.65 175.521 209.596 174.837 208.878C174.154 208.149 173.322 207.785 172.342 207.785C171.294 207.785 170.428 208.166 169.745 208.93C169.061 209.693 168.725 210.73 168.736 212.04H175.914ZM192.936 204.521V208.349H189.654V215.663C189.654 217.144 189.683 218.01 189.74 218.261C189.808 218.5 189.951 218.699 190.167 218.859C190.395 219.018 190.668 219.098 190.987 219.098C191.432 219.098 192.075 218.944 192.918 218.637L193.329 222.362C192.212 222.841 190.947 223.08 189.535 223.08C188.669 223.08 187.888 222.938 187.193 222.653C186.498 222.357 185.986 221.981 185.655 221.525C185.336 221.058 185.114 220.431 184.989 219.645C184.886 219.087 184.835 217.959 184.835 216.261V208.349H182.63V204.521H184.835V200.915L189.654 198.112V204.521H192.936ZM204.591 204.521V208.349H201.31V215.663C201.31 217.144 201.338 218.01 201.395 218.261C201.463 218.5 201.606 218.699 201.822 218.859C202.05 219.018 202.324 219.098 202.643 219.098C203.087 219.098 203.731 218.944 204.574 218.637L204.984 222.362C203.867 222.841 202.603 223.08 201.19 223.08C200.324 223.08 199.544 222.938 198.849 222.653C198.154 222.357 197.641 221.981 197.311 221.525C196.992 221.058 196.769 220.431 196.644 219.645C196.542 219.087 196.49 217.959 196.49 216.261V208.349H194.286V204.521H196.49V200.915L201.31 198.112V204.521H204.591ZM218.434 216.894L223.219 217.697C222.604 219.451 221.629 220.79 220.296 221.713C218.975 222.624 217.317 223.08 215.323 223.08C212.167 223.08 209.832 222.049 208.316 219.987C207.12 218.335 206.522 216.25 206.522 213.732C206.522 210.724 207.308 208.371 208.88 206.674C210.453 204.965 212.441 204.11 214.845 204.11C217.545 204.11 219.675 205.005 221.236 206.793C222.797 208.571 223.543 211.299 223.475 214.979H211.444C211.478 216.404 211.865 217.514 212.606 218.312C213.347 219.098 214.269 219.491 215.375 219.491C216.126 219.491 216.759 219.286 217.272 218.876C217.784 218.466 218.172 217.805 218.434 216.894ZM218.707 212.04C218.673 210.65 218.314 209.596 217.63 208.878C216.947 208.149 216.115 207.785 215.135 207.785C214.087 207.785 213.221 208.166 212.538 208.93C211.854 209.693 211.518 210.73 211.529 212.04H218.707ZM232.003 222.67H227.201V204.521H231.661V207.101C232.425 205.882 233.108 205.079 233.712 204.691C234.327 204.304 235.022 204.11 235.797 204.11C236.891 204.11 237.945 204.412 238.959 205.016L237.472 209.203C236.663 208.679 235.911 208.417 235.216 208.417C234.544 208.417 233.974 208.605 233.507 208.981C233.04 209.346 232.669 210.012 232.396 210.98C232.134 211.949 232.003 213.977 232.003 217.064V222.67Z" fill="#F5F5F5"/>
</svg>
