<?xml version="1.0" encoding="UTF-8"?>
<svg id="Calque_2" data-name="Calque 2" xmlns="http://www.w3.org/2000/svg" viewBox="0 0 457.12 422.93">
  <defs>
    <style>
      .cls-1 {
        fill: none;
        stroke: #fff;
        stroke-miterlimit: 10;
        stroke-width: 8px;
      }

      .cls-2, .cls-3 {
        fill: #fff;
      }

      .cls-3 {
        font-family: Arial-BoldMT, Arial;
        font-size: 50px;
        font-weight: 700;
        letter-spacing: .01em;
      }
    </style>
  </defs>
  <path class="cls-1" d="M218.89,251.94l-5.32-124.45c-.24-5.59-2.58-10.96-6.75-14.87-8.23-7.73-24.69-16.19-51.42-1.24-41.06,22.97-17.58,56.6-17.58,56.6,0,0-60.7,8.69-53.66,53.97,1.9,12.19,10.8,22.35,22.93,26.35,9.54,3.14,23.52,5.77,43.34,5.43,46.85-.8,68.45-1.79,68.45-1.79Z"/>
  <path class="cls-1" d="M240.07,251.94l5.32-124.45c.24-5.59,2.58-10.96,6.75-14.87,8.23-7.73,24.69-16.19,51.42-1.24,41.06,22.97,17.58,56.6,17.58,56.6,0,0,60.7,8.69,53.66,53.97-1.9,12.19-10.8,22.35-22.93,26.35-9.54,3.14-23.52,5.77-43.34,5.43-46.85-.8-68.45-1.79-68.45-1.79Z"/>
  <path class="cls-2" d="M254.98,224l2.84-66.48c.13-2.99,1.38-5.85,3.6-7.94,4.4-4.13,13.19-8.65,27.47-.66,21.94,12.27,9.39,30.24,9.39,30.24,0,0,32.43,4.64,28.66,28.83-1.01,6.51-5.77,11.94-12.25,14.08-5.1,1.68-12.57,3.08-23.15,2.9-25.03-.43-36.57-.96-36.57-.96Z"/>
  <path class="cls-2" d="M204.58,224l-2.84-66.48c-.13-2.99-1.38-5.85-3.6-7.94-4.4-4.13-13.19-8.65-27.47-.66-21.94,12.27-9.39,30.24-9.39,30.24,0,0-32.43,4.64-28.66,28.83,1.01,6.51,5.77,11.94,12.25,14.08,5.1,1.68,12.57,3.08,23.15,2.9,25.03-.43,36.57-.96,36.57-.96Z"/>
  <text class="cls-3" transform="translate(111.27 316.63)"><tspan x="0" y="0">2BeBetter</tspan></text>
</svg>